<mxfile host="app.diagrams.net" modified="2022-04-18T05:54:10.021Z" agent="5.0 (Macintosh)" etag="YsqM7nV7wngkZNjU0SZ2" version="17.4.5" type="github">
  <diagram id="Q4hW1Vw3qRKnbn8vuK6e" name="Page-1">
    <mxGraphModel dx="946" dy="565" grid="1" gridSize="10" guides="1" tooltips="1" connect="1" arrows="1" fold="1" page="1" pageScale="1" pageWidth="850" pageHeight="1100" math="0" shadow="0">
      <root>
        <mxCell id="0" />
        <mxCell id="1" parent="0" />
        <mxCell id="vtkCB2mhp_QXezqm18Jt-3" value="Pemilik" style="shape=umlActor;verticalLabelPosition=bottom;verticalAlign=top;html=1;outlineConnect=0;" parent="1" vertex="1">
          <mxGeometry x="140" y="260" width="30" height="60" as="geometry" />
        </mxCell>
        <mxCell id="GUYUoiMitkQpEaruLHYf-4" value="" style="edgeStyle=orthogonalEdgeStyle;rounded=0;orthogonalLoop=1;jettySize=auto;html=1;" edge="1" parent="1" source="vtkCB2mhp_QXezqm18Jt-9" target="GUYUoiMitkQpEaruLHYf-3">
          <mxGeometry relative="1" as="geometry" />
        </mxCell>
        <mxCell id="vtkCB2mhp_QXezqm18Jt-9" value="&lt;div&gt;Petugas&lt;/div&gt;&lt;div&gt;&lt;br&gt;&lt;/div&gt;" style="shape=umlActor;verticalLabelPosition=bottom;verticalAlign=top;html=1;outlineConnect=0;" parent="1" vertex="1">
          <mxGeometry x="750" y="270" width="30" height="60" as="geometry" />
        </mxCell>
        <mxCell id="vtkCB2mhp_QXezqm18Jt-12" value="Admin" style="shape=umlActor;verticalLabelPosition=bottom;verticalAlign=top;html=1;outlineConnect=0;" parent="1" vertex="1">
          <mxGeometry x="750" y="530" width="30" height="60" as="geometry" />
        </mxCell>
        <mxCell id="GUYUoiMitkQpEaruLHYf-3" value="" style="ellipse;whiteSpace=wrap;html=1;verticalAlign=top;" vertex="1" parent="1">
          <mxGeometry x="380" y="210" width="120" height="60" as="geometry" />
        </mxCell>
      </root>
    </mxGraphModel>
  </diagram>
</mxfile>
